<?xml version="1.0" encoding="UTF-8"?>
<svg width="12px" height="12px" viewBox="0 0 12 12" version="1.1" xmlns="http://www.w3.org/2000/svg">
    <g stroke="none" stroke-width="1" fill="none" fill-rule="evenodd">
        <path d="M7.4142,6 L11.7071,10.2929 C12.0976,10.6834 12.0976,11.3166 11.7071,11.7071 C11.3166,12.0976 10.6834,12.0976 10.2929,11.7071 L6,7.4142 L1.7071,11.7071 C1.3166,12.0976 0.6834,12.0976 0.2929,11.7071 C-0.0976,11.3166 -0.0976,10.6834 0.2929,10.2929 L4.5858,6 L0.2929,1.7071 C-0.0976,1.3166 -0.0976,0.6834 0.2929,0.2929 C0.6834,-0.0976 1.3166,-0.0976 1.7071,0.2929 L6,4.5858 L10.2929,0.2929 C10.6834,-0.0976 11.3166,-0.0976 11.7071,0.2929 C12.0976,0.6834 12.0976,1.3166 11.7071,1.7071 L7.4142,6 Z" fill="#666666"/>
    </g>
</svg> 